<svg width="30" height="30" viewBox="0 0 30 30" fill="none" xmlns="http://www.w3.org/2000/svg">
<circle cx="15" cy="15" r="14.5" stroke="#777777"/>
<path d="M18.4056 9.74812C18.2651 9.75833 18.1273 9.79128 17.9974 9.84568H17.9956C17.871 9.89512 17.2781 10.1445 16.3769 10.5225L13.1473 11.8827C10.8298 12.8583 8.55177 13.8191 8.55177 13.8191L8.5789 13.8086C8.5789 13.8086 8.42184 13.8602 8.25777 13.9726C8.15642 14.0371 8.0692 14.1215 8.0014 14.2207C7.9209 14.3388 7.85615 14.5195 7.88021 14.7063C7.91959 15.0222 8.12434 15.2116 8.27134 15.3162C8.42009 15.4221 8.56184 15.4715 8.56184 15.4715H8.56534L10.7016 16.1912C10.7975 16.4987 11.3526 18.324 11.4861 18.7444C11.5648 18.9956 11.6414 19.1526 11.7372 19.2725C11.7836 19.3337 11.8378 19.3849 11.903 19.4261C11.9369 19.4458 11.973 19.4613 12.0106 19.4724L11.9888 19.4672C11.9953 19.4689 12.0006 19.4742 12.0054 19.4759C12.0229 19.4807 12.0347 19.4825 12.057 19.486C12.3952 19.5884 12.6669 19.3784 12.6669 19.3784L12.6822 19.3661L13.9435 18.2177L16.0575 19.8395L16.1056 19.8601C16.5462 20.0534 16.9925 19.9458 17.2283 19.7559C17.4658 19.5647 17.5581 19.3202 17.5581 19.3202L17.5735 19.2808L19.2071 10.9119C19.2535 10.7054 19.2653 10.512 19.2141 10.3243C19.1613 10.1344 19.0394 9.97098 18.8724 9.86624C18.7321 9.78098 18.5695 9.73982 18.4056 9.74812ZM18.3614 10.645C18.3596 10.6726 18.3649 10.6695 18.3526 10.7224V10.7272L16.7343 19.0091C16.7273 19.0209 16.7155 19.0467 16.6831 19.0726C16.649 19.0997 16.6219 19.1167 16.4797 19.0603L13.8941 17.078L12.3322 18.5016L12.6603 16.406L16.8848 12.4685C17.059 12.3066 17.0008 12.2725 17.0008 12.2725C17.013 12.0739 16.7378 12.2143 16.7378 12.2143L11.4108 15.5144L11.4091 15.5056L8.85584 14.6459V14.6442L8.84927 14.6429C8.85375 14.6414 8.85813 14.6396 8.8624 14.6376L8.8764 14.6306L8.88996 14.6258C8.88996 14.6258 11.1698 13.6651 13.4872 12.6894C14.6475 12.2007 15.8165 11.7086 16.7155 11.3288C17.6146 10.9512 18.2791 10.6743 18.3168 10.6594C18.3526 10.6454 18.3356 10.6454 18.3614 10.6454V10.645Z" fill="#777777"/>
</svg>
